<mxfile host="65bd71144e">
    <diagram id="h-fHr7o9wx2FIs9OKSZT" name="Page-1">
        <mxGraphModel dx="553" dy="873" grid="1" gridSize="10" guides="1" tooltips="1" connect="1" arrows="1" fold="1" page="1" pageScale="1" pageWidth="850" pageHeight="1100" math="0" shadow="0">
            <root>
                <mxCell id="0"/>
                <mxCell id="1" parent="0"/>
                <mxCell id="2" value="" style="shape=image;verticalLabelPosition=bottom;labelBackgroundColor=#ffffff;verticalAlign=top;aspect=fixed;imageAspect=0;image=data:image/png,iVBORw0KGgoAAAANSUhEUgAAANoAAAD9CAYAAADatGlVAAAgAElEQVR4Xu2dB3gU1drH/1uSTdn0RiohHQIBpEnovTdBLyiiKDY+e0EFUREFRRDBq1cRxQ4WkN4JRTqETgpJIKT3ukk22fY9Z5ZdkjCbnZndhBDPeR6ee82eeefM/7y/ec85M/MekU6n04EWqgBVoFkVEFHQmlVfapwqwCggKi4uoRGNOgNVoJkVEIWGhlHQmllkap4qIHJ396CgUT+gCjSzAhS0ZhaYmqcKMHM0GtGoI1AFml8BCpoJjW1tbeHs7AytToeS4mJjLTd3d0jEYpCnIiUlJcz/kmL4e0VlJepqa431RSIRPDw8mN/FYjHUajWKCgtRXl5+x5nlcjns7Ozu+Ds5pqKiAlqttsFvrq6ukEqlxr+Rlmg1GsZ247qkEmkHaQ+xVVdXZ9K7TLWDHEDOUVpSwmq/+d313j0DZ9BkMhm8fXwYgfPz8hiHacslNCwMP/78CzQaDcaNGQ1FZSXs7OyxY/duBgYC2PixY1BWWgobGxvs3L0H9g4OePzRmUhNTWWkIWD93wsvYvqMGQ2kIsd+9eV/sf7XX42gkgqvz5uHKQ9MZZX1Zno65j73LHM+Q/nhp58RHhFxR30C0pwnZiM7K8v4G2njrr37YG9vj7ffnIcjhw+b7L757yzEuPHjWX8n/T918iQUFBTcM91Pbi7kn6Gw3YSauhhygyKl/o2V78VzAq1rt26MQ9y4cQNikYjpXOJ4SUlJfM93z9Qn0Wz7rt2QSCSY/dgsXEtORlTHjvhu3Q/GayDOnJiQgJCQEPz823rU1ioxavhwqFQqpk59cPLy8vDP4cMYPHQIvLy8GT1/37AeX6xaZbTXFGik0vlz5/D83OfMgkYq1NbWMrBdT0tj6v+bQQsICEBAYCATHEi/xh04wNkPyYhh0ODBDKgnjh9HVVUV52PrVzQLWmRkJGqUSmb41LlLFyainYuPR1h4OCorKpCdnS3oxK39ICLwjt17QIZRCxfMZzpnytSpeP2NeYwTkwj/39WrsP633zB02DAs/mgJiouKMHniBEaj0NBQfP/jTwyoq1Z+hj//+IO5ZAbcJ5/E7CeehEKhwISxY4zDOANoJ0+cwGuvvMzUJ1Fx9JgxWLDwXSiVNRgzcqSxviGirfv+e6xd8w0zjPTx8cEXX/2P+d+9e/Zg0XvvCgbt8OFDmP/mm629q8y2L/AWZIWFhQw0B/bvN3uMu7s7SIBR1dXBzt6eqU/6nfRHWmoqsuqNFswa47IY0qt3b5w9cwbkrlBaWso4mJOTEzIyMtD9vvsQf/Ysl/Pck3WWLV+Ofv0HMJB8/tkKrFj5Ofrcfz+WL1vGRKuEhKt4+sknMff5F/DIzJn458gRvDXvDeZan5v7f5g5axbS02/gkenTG1w/0XDTlq0gc6wPFr2PPbt2NYiA9UEjPxhArq6uxpiRI4zD9sagGU4ycNAgLP1kGSorKzFx3FgGTCER7V4HLSoqCrYyGTNczrh5E3xAC+7QAWFhYdCo1Th//jxz8+zcuTMcHB2Rm5uLq1eu8PJpsxEtpmtXXLp40Xg37hITg9SUFOZu3KtXL5w5c4bXCe+lyv3698ey5SuQlpaGuc88jS3bd+jnbKNHMfMd4ryTJ4zHR0s/Zu5+b8+bhyNH9HMf8rfBQ4bg2NGjmPf6a3dc9hdffoX7evTAzh078NHiDxqARuZhCQkJzN/IUCcyKoo518G4OLwz/22jLVOgkYWXLdu2M8Odh6Y+wDiGENDY+ioxMQFzZs++J7qR9B8Zbrfz9UVNdbURNMO8mmhM5rOmCol+ZKhIAg0ppB98fX1x+NChBnNrLmKYBa1nr15M1CJzCnIHJgsBZL5BOrFHjx4424YjGhmK7Ys7yFzrkg8X471FHyD9xg3MfHgG/ti4EX5+/kwEe/f9RcyQcNTwYcb52fLPPkPf2H44cvgQ3mYZfq1cvRq9e/fBwYNxeOdtPTym5mjEGYidlStWQKlUmgXN2cUF23fuYto04z8PMXdzIaCRc5EFgPqFDJsMUZuLg93NOgQ0cqNjGzqSaRBZLCKjNLYSFBSEiMhIZvRw+tQpxv9J0CGjuazMTN7rE2ZBi+7cmRE7NycHvn5+qK6qYpaPSVitU6mYTmzL5e+t2+Dt7c1EdSL05k2b8OmyT/DKa69j2oMP4vixY4jt1w+ZmZmY/uA0oxRkTjV23DhcvHABc599poFEBNxfflsPMjz58Yd1WPP11w1AI0NHErnmvfU2RowcCa1Wg/977jlcvnSpgR1TES2ofXv8tuF3JvpOmTiB6T8hoN3rQ0dLQPPy8mL6mwwZyQ2LFPLoBCIRrl+/ztxw+RSzoDGRq2dPBjAyhCKTQbL6Rki/cvky7xDKp3Gtoe7/vvkGMV31q66kPPn4Y0hOTkb74GAGFlKIJieOH8Prr75qbPLoMWOx8L33mAn01CmTmWdPhhIT0xVfffMNY/PRh2cgPT39DtDIYgjR/vsffmTurGR+9tC0qQ3smALtjTffwuQpUxiHIPZJ+beCVqVQMHM08jyUPN/08PRknmM6OTsz/msqohHNCGDk34CBA5m+OHXyJNMPBD6+X5eZBc3gSGQ44unpyZygsKCAmWjzPVlrAIdvG8iCBlnYIKW4uBiTxo8zXve2HTvhfusZy6rPV+KPDRuM5skDb/IcjkQXMgn/9JOPmeXhESNH4cWXXoKrmxuuXUvG7FmzjMewrTo6Osrxx19/MfUbD0MNoB07dpRZiJFKJOjTNxZ9+/ZlViA/XrIE27ZuuQO0TRv/wrVr1xpIQZyPtI8Uw3M0ckP5e9PGOyQjkZXvHZ2v7taoT55rksdRpgoZGpOo31QhgPn5+TGg5eTkCH5Qzwk0a1z0vWqDgPLr+g1M1Dpz+jRefvEF46V8+fXX6NatO9NZZC5U/wExqRQV1RFkrkYWJxoXsjz8yksvIqfe4xE20Mhx4ydMwFvzFzCd/O47C3Do4EHGnKkH1uS3TRs3YvXnK41zxvoRja0v4s+ewYvPP98ANFN99tmK5dj455/3apfelXZT0DjI/sSTc0Ai1MWLF5khoqGQIUV0dGdmgeKHdd+zWiLPYx6YOg1ktdbG1oapez4+Hlu2bEFFo9ewDPYyMzOwY/v2Bvb+M30G3NzcUFhYgI1//cX8Nu3Bh5hRRv1Chqpnzpxmlp/rjzjIEOjxJ56AjdSGtZ3Z2VnYtnUr89uQoUMRGRllUpmjR/9hhl20cFeAgsZdK1qTKiBYAQqaYOnogVQB7gpQ0LhrRWtSBQQrQEETLB09kCrAXQFW0MjbH2TyTwtVgCrQtALkPdL6b+uYqk0jGvUkqkALKEBBawGR6SmoAhQ06gNUgRZQgILWAiLTU1AFKGjUB6gCLaBAmwDN398fTk7OVpWL5P1IS9Mn2SHvLFq7ZGVlMh/PNodt0takpER0jZLj9acCrN10PPqaPlfM5++EwsON/ZUuoSc9c6kSq39se+kxKGgmPIKCZhoVChr/2wgFjYLG22soaLwlaxuZiunQ8c6Op0NH/jA05xE0otGIxtu/aETjLVnbj2hd+g1HkLs+L5+hqJTViD99HMXlNSYV4zNH69RzMGbOmAI3J3soK4qwft23OH216ZwSXBZDYkdMgJsdcPzwAZRWVDNtdXb3xIB+faGtysOuONMZyMxGNLETXP0Gm7z+2pJTqKlmz0bMBTQbx25wdAtktV9XeQnV5ey5ZuhiCH+IW+yIpoaOjy9YiQHhbne0RatR48Cfa7Fh90nWdnIF7alX30GfmDA0/mA+7dxhfLJ6HUx9KM8FtPmrf0CoM7B04etIzSxi2hkY3gnvL5gHVf45PPvmapMamwXNJgAden90R7sNBsuvfYbiQn2awcaFC2iOPnPgEzaA9fjKrHUovHmI9TcKWothw/9EZkELc8E3HyxGNpOqW4TQrn3w2IPjUVGUi1dev50nsUHU47C832/CLMyeOhRFGcn46uu1yMgtgle7QDz/6msI8HLBtl++wub9p1kv6K6DJrKBrb0P0zaROAr+XR9FbfFhFGbsZf6mqSuCRn07tV39i+ADWnXeLpTkHm2ggVZVCrWKPbU2BY2//7fYEeZBc8biZ55Fep0+J75TcDQ+f/8NKEoK8dKr+szCjQuXiDb/w+UIDfDA9yvexbHLmUYTXpEDseTtJ1CYeg7zP2SPOncdtHoXLBJ3R4e+L0OZvx05qeZzgfABrTJjPQozd3P2BQoaZ6lavqJZ0MJdkRAfjyqtDlKpLUIiIuHiKMOlozuwaq0+/4YQ0JZ8sQY+jmq8/dRcFDQYI0qwcs1ayNWFeGruvNYZ0VoINHV1Bmqr8xpoUJL+E1S1lay6UNBanh/OZzQPmhuqKiogtXeAzEYKdW0N9m7egI27TG9dxCWiffzVWnjZ1uC1OS+grFFrl3/9PdxQhiefvZ3rsX6Vf0tE02mU0Gob7sWWd+U91FY3zIBs0IaCxtntW76iWdDCbg0d1RJ8uPwz+Lo74OjWn7BuU5zJxnIB7aPP/od27rb48PWncKOo3iaBYn98ufYjSCpv4NmXFgmPaKt+QKgL8PF7byDlZiFjx2qLIS0U0ejQUS90m3+Oxqw6GkCrU8G/0wAsmvckdOparH5/Hi5n3bnzJhGGC2j/99YHuC8qCId3/Iaf/tQvIpAydvarmDooBgmn9mLF/34TDNqsD77EoCBHfLX0fcQn67MZh3bsi/lvPoPiq1sw79O/Td4ozK46UtBaNCL860Aj6k574kWMGXgfirNTMG/BR6yCcwHNLTAaH773OmyhwuVzp3H2QiKie/RBz26dIRWpsfz9+UjM0C/LNy5cho6h9z+At5+diJryIuzbtw8KtS2GjxoFHzdH/LFiAfZczmn1oKlrclBX0/B5nKbmCgrT97G2nQ4dW5R/fifjPHS8teooc/LCwg8Ww9fVFtu++xSbjybecUIuoJGDIrr3xeMzp8PHw8Voo7IoF7+u+xZnrl43eSFcQBOJxXjkmZcxqHcMxIYHdTotrpw6iFVrfoFWq98PgK20lojG1jZ1xWFkXGZPOEtB4+f7LVr7br/rKJLYIDQsHHIHGVRKBZKSU6FpAgIiDhfQDCJ6+QbA18eTebhcWpCDjBzz+0fzAY1vZ3FZ3udr01CfgiZUuRY47m6DJuQS+YAmxD4FTYhqzXdMm5+jCZWO69BRqH0KGrtyNKIJ9agWOI5GtDtFphGtBRyPxyloRDMhFo1opr2IztF4EHarKgWNgsbbayhovCVrGw+sZTIZs8OlNQvZW4xso0qKo6OjNU0ztgy7TTaHbWK/qqoKTo4SBAfYWb3tl5P1b95HhjjA1sb0jppCTlxeqUZGTq2QQ1v1MW0iorVqhWnjqAJt5RWsgb1dEORn3Tt3VbUGf+/Vv9Xh46P/bsuapaysjNlIfuZk69sm7fxlcz4cPe3h172dNZvN2ErZp/96PHhAIGzsrDuSUORXIfeS+eeEVr+oZjbYJiLai4/5o1eMk1WlKi5V4eUP0xibzZF70bC8//MK01vYWnJBZB7lHuqGrtM7WWKG9diDH+m3F+77Qk/YOcusar8gqQhXNyZb1WZrMEZBM9ELFDTT7klB448uBY2CxttrKGi8JWsbq4506Hhnx9OhI38YmvMIGtFoROPtXzSi8Zas7Uc0O9fx8It+kFWZ2uJdyE7awPoblzlau46xeO/1p4CqQrz95gKU1aggtrHHspUr4eZogzUrPsSpK+z5Hbkshsi8J8I/fGq99umgVVeiPPMPlOaQzFKmP5PhGtFkMlcsHPkuc466muv46MB/oTFtlqnHBbRe3Z/BpIBIdo/UlmPJjkXQP6VsWOhiCH+IW+yIpoaORtB0Guh0DbMs1pbsRU4ye9YnLqCRC/zPUy9jZL9uSLt0DEs+W4vH5i/HwAgPXDq4Eat+3GZSA16gGdsugkhMltNFKLu2GCWF+t1u2ApX0Np598PzfaYyyJJHzz/+sxQpZfq0CaYKF9B6dJ2D8f7hjAmJ2Ib5nk6l0Wchg7Ycy3YvAVv6Wgpai2HD/0RcQFNm/oKcDPavetnOyBU0qcwNi1d+Ci87Ebb8/hsmTX8UIk013nz5FRQpTL/hwAc0Y8JRkQT27v3hG/UEoLqB66fftxA0Ef4zaBG6ODlg67WzmBjZG+dS/8amxH8sBq2+gYcGvI8YFzu8s/0ts51LQTMr0d2rcDdBI1cd3WcEXn3uEaMAP65cjCMX9c/gTBVBoAGwde6BgC4vAups3Dg13+TgkUtEkzsGYt7QV6BTl+PDvcvx2qhFsFXl4eN9y9Ewb1XDq+AS0ShoDTVr84shpudoWuSdm41qE+n3uUY0/djIBm8sXokoPzk01bl44YUFqNXUy4rFQhsf0OoUCaipyIJYKoe9W3dIbexQefNLFGaZzr3PBbROwSPxcJfRSEzdgF8TT+Px/m8hzM0bf59egfh805sBUtD4B5V/DWgaRQqqFFn1FNKhIuNH3EojcodyfEDzC+uORe+8BPEtK5++Ow9JGU2/RsQHtPqN02qqUVN8AvmpPwM6SxZDJJg18B1EOMvx54nVKFIDUcEjMSQoGilZ/+DH86YzbFHQKGh3KGCIaM01RxPb2OHlhR8hOtAdSQkJiIyORm1hCt5Y8Amq69RWHzpy7WJzEc3JORxvDnqO1Zy6thBL9y1FrQmOKWhce+F2vX9NRKvN3oDczIYJU8mnMLpGWXQN0nCNaEOnPI5HJg1GUVYy3n5vBRavXIV2zvbYs2EN/th9vNWC1jdiKsZF9kNuYTwuFtweJkYHxSLQyRP7zn+Jw1ns80wKGgXNZEQDs0TecN6krrmOzAtLWFXjApqNazA+X/4u7MQafDr/NSTlVUAq98fqVR/CVqTGpwtfR3I2e4JWPkPHprY5MtXl5iLanCGLEewow5p9byGj9rYuUe3HYGbMCOSVXMV/j33Hap6CRkG7QwEbhxi4+vVkVUZTV4iSDPZnXVxA6z9iPEIDvJB7Iwl7D50wnqPf6IkI8/VA3vVE7DnMvv8aF9CkTl3h5tMDypJjqCzh90Z7U6DZyrwxJnIIVLUl2Jnc8JGHxMYd4zqNANRV2Hp1u1VA6xU+Ef72Nth8aaNZD6XL+2YlunsV6LuOd2pvLqJZ0lt8Ixqfc1HQ+KjVwnUpaBS0FnY53qdr84shvBW5dQCXoaNQ2+Q4LkNHS+zTiGaJetY/loJmQlMKmmlno0NH/iBS0ChovL2GgsZbsrb/mQx/SfRH0IhGI5pQ32E7rk1ENGsKQm1RBZpDAQpac6hKbVIFGinQJkCLnhoJ7yhPq3ausqIWJ744y9gcsqCfVW0TYxc3JKAkrbRZbBP7ZB5F081ZvdsEG6SgmZCOgkbnaIKpYjmQgkZB4+1PdNWRt2RtY9WRDh3v7Hg6dOQPQ3MeQSMajWi8/YtGNN6Stf2I5iGPRGyHzg2UUalrkJh9FjcrTH8FzXWOFuQdg64+4cgvTcDprETOPcBlMcTVLQoDAqJZbZYWXMDRfNN5SbhGNInEDmM7jWPOoa7Nw65r+rz6TRUuoLUP6I8YNxMbeOhqsOfKTta8JPSlYnPq38Xfmxo6BnsNw5z79Y5Uv2g0Nfj9xEoklOp3jGlcuILWI2ISpkQOQnLGbvx8cS9nFbiA5h84As91G8NqMzNlE75JIrkd2QtX0NxdIvHqwGduGVHjq/3vIafGRCKVW7W4gEbzOjbslzY/dDSAZnBMW1snjOo8A338o1BcnoiVR75t9aDFp/yJv5Nuf+/GhWauoA3tOhdDg0JxtTAP0V6+OHD5JxxMv2BxRKtvgKabQ9sfOjYGjThAO/fueL7foyivysKncZ/9a0ET27jjnVHvQKKrw9K4tXhr2Fwoyi5jxdF1TeRA5papmIL2L49ocnsvTLnvMUS6+6Gg5CJWH/ux1YOm1aqh1tbPsqzB0r3vQ6UxnfyHS0Rr730fnuozE2VFR7D8xGb835D34Ct3xneHFuJGJVvCbr1UXIaOFLR/KWiNaaqtLcU3h5ehoJY9m3CrnqPp1Fi0a77FoI3t+TJifQPwa9wCJFbVYlDMkxjRPhrnUrdiU+KhJud/5EeuGxHSoeO/aOhYkncWB3KTmX0h1JoaZJbcQEWd6Ul/awKtOeZoNjJvvDX8TcjEOuRV5DFQ2do4wd3eCZWVN/DJoS8oaFwmwxzr/OsWQzjqgrYOWqegEXi46xhU1xSioLrSKIunkx/ktrZYf+RDXC0vY5WLDh25etHtehQ0E5rxBa2yOg/pZfrIYCgHE/9u4MT1f+OzvF+qyERWRXHDlqqL8PvFnU1GnaZeKn7w/tfQ1csPm44vxbni2484+kY9hHHh9yMt5xDWxW+loPFnivWINg9aoMcAzOwxAjnXd+DH1FOcZeMKWteQ0RgbFstq99eTnyOjooT1Ny6g+foNwuOdh7G3uS4LSw+tEQSaSOqNV4c+D1FdEZYfWt3AhtwpDM/3nQWlshCfH2EfPvKNaJPufwOdnGRYuu9Ds/rTB9ZmJbp7Fei7jndqz2XVUWiP8QWNz3koaHzUauG6FDQKWgu7HO/TtfmhI29Fbh3Adego1D6XoaNQ2+Q4GtEsUc/6x1LQTGhKQTPtbHToyB9EChoFjbfXUNB4S9b233XkL4n+CBrRaEQT6jtsx7WJiOYZ4Q4HD3tr6gJ1rQY55/TPxYL6+lvVNjFWmFiMmjJls9gm9jNOZMPe1Q5eHT2s3nZimxS/+9pBKpNY1X51cQ2KrrE/ErHqiVrYWJsArYU1o6ejCvBWoE2A5unpBQcHB94X39QBGo0a2dn6O3dQUHur2mYiWmEBampqmsU2E9EybsLe3h5eXt5WbzuxTYq/vz8kEqlV7VdXV6OoqNCqNluDsTYBGunw4uJGryhZoK5UKoWPTzukpaXeAi0IBQVNb/7O53QeHh4oLy+HQqFAREQkMjMzQLb5tUYRiUQIDAzCtWvJkMvlcHFxsao23t7eyMjIYJoaGhqG/Pw8qNWmP9fhe01EG8MNju+xrbl+mwHNmp1jY2PDRBoDaARka9onEFdVKYygpaRcsypo4eERRtAcHeUMDNYq9bUgoJHoplKprGWeiZLW1NpqDbPQEAWNRUAKmmmvoqAJI46CRkHj5TkUNF5yGStT0ChovDyHgsZLLgpaU3LRoSMdOgrDyfRRNKLRiMbLp2hE4yUXjWg0oglzGAqaMN1oRKMRjZfnUNB4yUUjGo1owhyGgiZMNxrRaETj5TkUNF5y0YhGI5owh6GgCdONRjQa0Xh5DgWNl1w0otGIJsxhKGjCdKMRjUY0Xp5DQeMlF41oNKIJcxgKmjDdaESjEY2X51DQeMlFIxqNaMIchoImTDca0WhE4+U5FDRectGIRiOaMIehoAnTrc1ENLHYemnPxGIRpFIbYyqDsLBw1JrYGVSI7La2tkx6AZIzJDIyCiQhjTULSVSUnJzE5AwhaRPq6uqsZl4mkyE1NYWxR1IZqNUqaLXWyXdCbGq1GprKwGq9RQ1RBf5lCrSJiCYWi0GyP1m7aDT6DdolEutFS0MbtVotk5CnOWyTc5C2E02INtYuzakL0YRo09ZKmwCNzBucnJyt2jcks5MhC1ZUVEer2ibGSIq5qqoqNIdtYj8pKRGOjo5M6jlrF2LbMHQkX6Nbs1RWVtChozUFtaYta6coo6kMTPcOXQwR5rltJqJZMxcgBY2CJgwn00dR0Fi0oaBR0ChoLArQoeNtUcgCCM1UbG1MLLdHIxqNaLy8iM7ReMllrExBo6Dx8hwKGi+5KGhNyUXnaHSOJgwnuhjCSzcKGgWNl8NwqEyHjnToyMFNblehQ0dectGhIx06CnMYCpow3WhEoxGNl+dQ0HjJRSMajWjCHIaCJkw3GtFoROPlORQ0XnLRiEYjmjCHoaAJ041GNBrReHkOBY2XXDSi0YgmzGEoaMJ0oxGNRjRenkNB4yUXjWg0oglzGAqaMN1oRKMRjZfnUNB4ydX2Ipo1U7aRhDkuLq7GnCHBwR1QXl4mTGGWo0h+k5KSYmO6uYKCfKvZJoa8vX2M6ebc3T1A8nBYqxBd0tNvMOZIujmiiyFZjzXOQVLlWfNreWu0yRo22kREs7OzY/IwWrPodFomeQ4pcrmTNU0ztpTKGqjV6maxTewrFJWQSqWws7O3etuJbVJI8h+RyLpZtkieSKVSafU2322DbQK0uy0iPT9VwJwCbQI0MtywsbE1d628fie5BQ1DLjJcsnapqlIwEa05bJO2kiEdiWiOjnJrN904jCZDYGvnjVSp6qyeudnqAggw2CZAIxN0wzBPgAZ3HELmaK6ubvXmaMEoK7PeHM3ZmczRSm7N0SKRn2/dOZqPD5mjJTMpwd3d3VFRYb05mqsrmaOlG+doZWWlVp2jkeEonaNZw4ubwQZNznNbVJqcpxkczAom20xEs+ZdkH5hbdqz6PK+MOooaCy6UdAoaMJwMn0UBY2CxsunaETjJZexMgWNgsbLcyhovOSioDUlFx060qGjMJzo0JGXbhQ0Chovh+FQmQ4d6dCRg5vcrkKHjrzkokNHOnQU5jAUNGG60YhGIxovz6Gg8ZKLRjQa0YQ5DAVNmG40otGIxstzKGi85KIRjUY0YQ5DQROmG41oNKLx8hwKGi+5aESjEU2Yw1DQhOlGIxqNaLw8h4LGSy4a0WhEE+YwFDRhutGIRiMaL8+hoPGSi0Y0GtGEOQwFTZhubSKi+fn5WT1tG0mcc/16GqNqRESkMHWbOCo7O4vJc9Ictslpr11LZtLB+fsHWL3txDYpISGhTAIgaxaSyi4nJ8eaJluFrTYBGsmTQf5Zs+h0OpB/pFg70xOxSbJsNZft5rZvaHtz627N/rzbttoEaHdbRHp+qoA5BSho5hSiv1MFrKAABc0KIlITVAFzCnACLapjR7Rv317QPIjMc26kpyMlOdk45wmPiEBISIggexqtFpcvXkReXp5+jiMVw79HOzi1E5aRl0z8bY8AAByXSURBVEzDcs7noTxTn2SUzDtIklB7e2E567VaHYqLi6BSqRh7NvZSBPUNgMxJWCZlrVqLmyeyUFOiz0dva2uLXr17w8lJ2H4ACoUCZ8+cMea3J1+Te3h4QiwWNsdVqzUoLi6GRqNm2kcWYPr07QtbG2F7IeQXFDD9SxajSCF7B7i5uUHoFFyprAVJ8mqYVzq1c4R/T1+IJcL2DChOK0X+lUJzXN3xu1nQfH198dD06bwN1z+AwPbdt98yq2ze3t6Y8cgjFtkjB3/91Veora1lRIsYFWKxvWOfn0ZdlQoki7Cfn79F9urq6owrluEjOyCgl59F9pTltTjx37OMjb6xsejdp49F9i6cP4/Dhw4xNsjKIYHXkkKyOOfl5TImHps9m7lRWVIOxsXh0sWLEIsliIiIsMQUc2xhYSFz85PYiNH/tT6CITM0JP6HS6jI1m/0wbWYBS0sPBzjxo/nas9kve/XrkVlZSWCg4MxacoUi+2tXbOGATd4QCA6DAyy2N7JL+NRU6Zk7p4+Pu0stpeUlMjYiJ4aCe8oT4vtHfzoGGNj5KhR6Nipk0X2UlJSsHP7dsZGVFRHi2yRg0mUzMrKZOy89MorFts7eeIETp08yTw6CAsLt9heaWkp8vPzIJVJ0P/VPhAJjN6GhlzZmITCpGJe7aKg3ZKLgsbLbxpUpqCZ146CRkEz7yVmalDQzEtIQaOgmfcSCloDBejQ0QKXoUNH4eLRiGZeOxrRaEQz7yU0otGIRlcd+XNCVx2FPTOkq450eZ8XbRS0eww0W7kHhgzojfLySng422PX3v0gb0awFXPP0UT27hjWKwoXUnIw6P5u2LRlGyaOHYptO/aBzSSX52jerjF4sud4pBSnQ6vMwqbEIyYdksscrfv90/DAsBBkFFfAx7YYH67+06Q9Ls/RHB28MS5qDLr4RuJyTjy2nt8I/fsfdxYuz9HaR/WAizYbKreOUGUnIDWLfcterqC9uHQ1vn73FXTpPxteirPYfeYCa9v4zNFiR07EtdMHUFRWZbovODxHE0tleGPhu6gqyoGPny/Wf/sFEq6zXy+X52gikQTzRn6AjKKr8HEOxPoTnyFfqX+7p3Fp8cWQkE7d4aQpwcXkmwjtFova1FPIUmgEgUYOGjJ8JHILyiG30SLnZhZC/B1x9GIqqz2uoM3uMQZX8pNRWnAJxwuuWwzahP7+SMsvQbCrAh998bdFoJGDbaVOWDDieSzetRT6l46EgyaR2mL0xAlARR72xB2H2sRNry2AJndxx6KXpuCND75Dh55DMCzUHmt+38kqHh/QruWeQZBnR6w/vgwFSnZfbnHQAiO6wF+uxs0SLYICg5B6Jg7FJhpnLqIRhbrHDoafXIrDpy6h38A+SDixH5lFNRaBNqNLLHYnH0FNdR4yFCUWg9YvDPDuOhg/rXgXqXmm7XGJaNYGjdgL7tQfyIpHegW7bqQOV9DmLvkCGz5+BTHDn4M08wj2n7nYaiKao7Mblr33NF59czl6DJ+GMLtC/LQ5zmLQ9l7+FbkVuchTlJr0lRYHDRJb9B04EO6O9tBq1Dh8YB+q69jvy1xACwrtiEBPe5w6n4BRI4bhwL49UJqwxyWieTh3xOO9puoF05Zg1cGvTEYNLkPH6O5jESy+jj0ZCix8ZgI+XPI1VCaiBlfQbKSOeL7fLHxx+H8WRzRymQHhPaHNuoKcGlODUO6ghfYYh6emD4ZOpcRXq1cgM6/MYtB6DBiO6xePo7Si2vRNj8PQESIxJj/2HO6P7gClogj/XfE5ihTs18wtoonxzIBX8cuJ5VCwjxiN7W150JoY6jT+iQtoPMyBC2h87HEBjY89rqBxtclljsbVFteIxtUenzkaF5v0XUcuKpmoQ0GzQDwAFDTh+nGJaHys04jGR61GdWlEEy4ejWjmtaNvhtzSiIJm3llM1aCgmdeOgkZBM+8lZmpQ0MxLSEGjoJn3EgpaAwXoHM0Cl6FDR+Hi0YhmXjsa0WhEM+8lNKI1f0Tr0KEDJk6ebHFnfLd2LRSVlQgMDMQD06ZZbO/bb75BdXU12vcLQMjg9hbbI8lvSBIcklimXTtfi+yRjEuGtNmdJkXAp7OXZfbUWhz+5ARjY+jw4ejSpYtF9pKSkrBn1y7GBklJbmkmZpILhqQ4J2Xu88+DZNaypBw/dgxnTp+GRCJFeLjlOUNKSopRUFAAia0EA0jOEIllLxVf+j0Bxamm3xxhu3azEU0skWD06NEgKeKEFJIBKy0tDbt37oRGo2E6dfiIESAp7ISk8SZOfPL4cZw9e5ZJX2crt0WXB6Pg7Ccs/RqxcfNoFtL/yWTsSSQSJl+9g4ODkMtl0pplZ2ejqkrBHC/3dkDM9GiL0s0lbE1BYWIRY48kD5oydapF6ea2bN6MokJ9yjRHRznIxhVCYSNp4bKysqBU6l/5CggIwIRJkwRn1iJpBLdv3cokXiLFw8MDnp5egnyFHK9UKpn2qdUqQAQmI1nokPZMmkIhpSCxCAlbrkGnYX953pRNs6AJaQw9hipAFWioAAWNegRVoAUUoKC1gMj0FFQBq4BGElJGjguDb4y3IEXJ3Oj6wZvIOJHNHE/mbkOGDkXnLl0Ej80zMjKwbcsWY2ppsghD5g5CJ+o52dn4e9Mmoz0yryGLREKz/Obn5WHjX38ZU4eTjNDEnp2dnSANyVxk6+bNyM3VZwwm1zl12jT4tBOWDJZkWyb2yHyTFJLMdMoDD8DPX1gWZ9LHJEPyP0eOGFPD39+3L5N1Wchcndi7cvkySFZjw/ZaQX39ETJEWOp6co25lwqQvCMVOhNfZAjqmFsHWQU01yBndH/UspUw0p6z319EZa6CmQDPnDXLkutijiUrV2QFizjdM889xyx0WFJImmrSsWTh4KlnnhEMhaEN15KTsWun/mPFJ+bMEbzAYbBHVv/Iy9ukjBk7FhGRlm2gSOAlq7tkgYfc+GK6drVEPuZYkhqePHcjwD740EMW2/vlp5+Y3P9OvnL0fMLy9p3/+TLKMvT7MFizWAU09w6u6PpwtMXtMlykl7c3HrZCfv6LFy7g0MGDsJXJ8MyzzwpeWTNcWHJyMrN6SkB7+tlnIZPJLLpmEnX/3riRsTHn6aeZDSIsKWSljnw+RApZmQwKsixVOtnbYM3XXzOgjR47FpEWgkvaZe2vOH779VcUFhTAWjf7i79dRckN9u/uLOkbChoP9SholkVIChoPZ2OrSiOaMAFpRLN8sxMa0QT4Hh060qEjX7ehoPFVDAAFjYLG120oaHwVo6DRxRABPkNBEyAajWg0ovF1GwpaPcVEIjGifDohJf8K1E28i8kdNBn8A7xQUlSAGmWdyb7hurzv6+cPiViEqspSlJabzqDLddXR3tEdHm76l5LLigqgMNFGPoshHl7esLMRIztHv3c3W+G6vG8nd4WtSAVFTR28PdyQl1/Aao/v8r5M5gQHqRqlVaZzSnJZ3hfb2MLTVY6CojL4+fshPzcHGo2WtY1cQWvnEoaS8lSY9ha9+Xt6ed+v3Sj8J2YIfj/+CXKaSEzJCTSRBCMnTkbBzRS08/HBwX37UMveB+ACGrkJTJg0GRnpKfDyCcCl04eRX8qec5AraP6hfRDWToLiikrkpqehuJLdHlfQwrrfDz87oFonhkxZhmMXEiwCzS+iO9xE5UjLLsawAb2xY9c+q4Dm5dMRQfIKxKfp3yZhK1xAk7l4YsB9kbieUw1vBxVOXbhqfPujsU2uoI3t9gpOX1gJ/TcQpsu9C5pIgieGfYiDCfsRbVeC7dfPm7xKbqCJ0KvfEMhQh+yMG7iZmc2am5+5O3F4YG0Abd/OTfAI6QoPURkuJt5kbSMf0KKD5aisqkT8ydMm76JcQRsxZgxO7N8FuXcgoKlDXh57jnmuEY2AFtPBi4loLo42rRK08SMGQq1UYe+eHahRmbiTAqCg3XJVub0P5g19GTUqFWSiKny8dxmUOvbxIxfQxGIpunaNRnJiMnoNGIarZ+JQVMY+VOED2pEDOxEQ3h3a8nQkpOnfF2xc+IDmVJeJpMycJu+eXEEbMHw0blw+CUfvMIQEuGPXrr2tK6I5uGFY3y5ISimDl7QQF66z60cazTWiDe3VCUcvp2FwTHts338cJlyGF2hXEr8F2eK9pq4KWhMG79mI1iFoDCJ017AnMw0P3f8yrqb+jqtF7B3BBTTSWf6hPdC3RxgK05Nw+DR7Png+EW3cxEmwl9miODMVcSfiTcLBGbSQ3pDXZSE5yzqgwV6OkUOGQG4LnDx2GDmF7O/icY9o3eAqKsf17BIM7d8LO3fvt3jo2KXXYIT4OmLX1h1NzoO4gta/ezgOHDmNEROm4Nze7Sg2keKca0Qb0+0N9A3wYa7zi7j3UVit/zC3cblnQTMzJG7wM1fQuNrkEtG42iL1uILG1SbXiMbVHlfQuNrjuxjCxS4X0LjYMdThChpXmxQ0rkrVq0dBoy8V83UbChpfxTguhvAxSyMafamYj7/Ur0vf3uehHAWNgsbDXRpUpaDxUI6CRkHj4S4UNKFiUdAoaEJ9h0Y0HspR0ChoPNyFRjShYlHQKGhCfccqEc0l0Bn3zbI8Oc+ZtRegyK+yWnKe06dO4cTx41ZLzmN4XGCt5DzJSUnYfSs1t7WT84weMwaRUVFC/YI5rn5ynsFDhqBrt24W2SPZqkhq+CqFAiTr10PTp1tkjxxsSM4j93FErzmWtY/YO/fTZZRnttLkPCS9ctiIDpB7C//MoyStFOlHMxnhSbaqAYMGwdvLi+SeE9QZFeXlTGIe4iykdOzYEdGdO4OkOBdSSIapQ3FxqKnRv+5FUqSTrFBCM2uRh8vEniH1dUhoKLp37w6JVCqkedCo1Th//jyup6Uxx5NEP4OHDhX8jRtJ306yfqVcu8bYs7e3Z+w5OQlLvU7eoSLpvo/+8w+T7IeUvrGxzF4MgvpYp0NBYSH+OXyYSTVPSnD/QLiHugnSjxykKKhC6r4b0KpNv1sp1LhVIprEX1ieeqGNpsfdVsC7qA42TX171MJiERfNuuX4LXzqVn06i0EjdyfPo2Ogs+GX9L9Vq3IPNW7ti4nocFMftVtDUeh0GJxfAI1IJCgxamu4huZog0WgkTE3+UdBa46u4WazNYI2KC8fWrGYglavCzmBNnnKFHixzJdUKhWzR9n+uaXGiKZTaVB1MhXyAQJXqKo1wJlqYIAcOFIFDJZz87jmrhVXCrg7AN3YkqbqgE/zgDcs21fN5CUcSANigwD7O/cdM4AmkkrhtnAhxLeSsJYuWQJNSQlg5wSPpSth4y5C3uw5kMidoKloYrLv4A7P5Z9BpMxGxeFU1O38GTqVmrO6tRIJVvbvDwcn54bp13U6lJWXY+OffxrnaBMmTkQ7krJcyDxcp0OlQoG//vjDmKZ97LhxzBZUguxxuUKdDoWFhdj8999cajeoYxa09u3bY/IDD7AaJqCRyfy22TlG0ApW7IC6oALyIZ3gPFpAimaS93xJJjDSGZDZA74i4JoK6O8AnKsBomVAiQ7wlQJZSiBdDfSVAxcUQK0YaC8GyB5xnW/lsL9WDZSLgF52wDEF0EEG5KuAQBmQVAP0dALstMDRKuB+uf5vFVog9hbgubVAmhoorAZEMqCjDGgnAi7XAj3kQKoScBAB15VARzswuRpEUsBXDFxWArYioIuwOawupwKiP64A2RWAix0QGwgMDW3QFwbQxO7uCDx2zPhb7rRpqLt6FeIO98H79YnIe3kZnN7+Ao5BVSha8jVcnpsD5d4/oKr1gH3/vtBe+AuVOy9AEjMc7lM7ovCjtZA98BTsQ7yhOvonahWucJ05FpXf/gCHsYNRs/N32M94HZore1HxxyHjeWulUnw9bBgcXVxZ9zkwpAT3DwjAtAcf5O2wjQ/49eefUVRUxAD7nxkzLLbHxcDmTZtw8yb7x8GmjjcLWlh4OMaNH896PNmEjuRRrw+a4kgSKnach+vDsXDoKnAnzhtVwPwC4Kdg4J1sYKgDkKEB4muAxZ7AaQDjCHiVwI/FQD83YG8R8IIfsDwXkOiABYFAoBiYcxMY5w7sLwWe9gE0KuBQLdBRAuyrAioBOGv1d8FRbsC+MmCgA+DhBAyxA16+AbSXA8EASkXAPwpgoRewphiIdQNOlAIzvIB1BUA/O6CdHPipBIgUA53lwK4K4PNALv13Rx1dWglE38dDJxYBw0KAzHKIHu3OCzRS2aZTL7g8/xSKFv8Me9cc2M+Zi/KFC+D0+geozchF7frV8Nn1K/KGTgeZadv2GAinqaNQdTkfqm3/g8eiuVCcqYJdTBREyhuQuslQsOwk3J/sD5GXE4pfWsgcR4o50JrrMxlrgculo3Zs347UlBQuVY11LAKNLaLpNFoUfbkX0OgY2Gx8XHg1iKlcqgLeKADW+gPvZQMdbcl2JsDpCqC/IyBx0IO2JAvwtiVbpwBnyoBVwcAbWcBYZ6C/M6BRA3sUwN4KgKz6DnQFHLVApggIA3BJC3S1A3YWAz2dgV72wBeFwHQXIFUETHYEDlcCfxUD3RyAKEdgTSHQUwx0kgMFEuBSJbDUH3glQw/aBG/g6Uygrw3gIQOOVQkGDSoNdF+eAkaGQbQpAbrBHSDq3/DmZRw62tvDa9Uq47CpZNEiqLOyIAnuBPm4IZAEBaFk0Rq4Pz8BNcnFsOvoC21FPuqU3rCVVEFiW4ySL3+HtHMsHAd1h9hVjqr4m1Ad+BNuLzwItS4IIokNoEiDWFuKsnVn4f7uc1ClXULFD1s5RzQKmgkc+EY0xowOUF7LAcnHIYsQtm0Qfzpb2RE3aoAyNbCrGpiv/7JXSNEduQHR/jTowj0hmtmN2R62frF0McRu2mwo/1onpGmsx9CIxi6lRRGNPCgkD3B3TMtELRl+0dLiClgKmrUbXGJvjw3DR0Dm4MDsqda40IgmIKKRZ2hkw7pcpwocH1li7T6j9jgosObNqwjONJ1HkYMJq1WpsbHBd7GxkHp4MltasW1AT0ETABo5hEQ1sihC5muGV2uE9hyZZObl5jLvOppa6eRjO+HqVeZdR9LhwcEdLH6uo1BUIj8/n7H3yKOPCt7t03ANZDdNst8aKTMeeQQODvxWJw2vf6lUdczzTPKo5ff1Gxh7o0aPErw7p6F95Ca6/tffmH4dNHgwQkJDmpRfIpEyK41kF1RTr6a1BtDICqW3D/twvrCgELm5TSdVavHFEIPqhgfXhi1OG/cG2Tq1/m+m/ptsykecz9PLC9NZlmrN2Wl83kuXLuHIoUMMGGFh4RaDVlFRwXQCsUc2Dqy/rW7jtpnyyPr1MjMysGXzZqYqeanYHGjmrp88aln33XeMvUmTJyPQChsRkuV4AtrIUaM47SBKtGlqq9y7DRq5GYwYOQJXr7AnZe3WvTu2b7u9uMPWjy0KmourG8QiEdQqJbQiGygry2Hn7ApldTWcnfTPoHRaLURiMfP/a6rKIHNwYY6pVVahuqb2jmv4688/kZ2VhaZ3/BQhKCQENrcecmZlpKJWxe7W9d+2Dw+PYHcAkQi9Y/sh4fwZdIjshty0CyiquLNt5AwEtJycbPM7fkptERTgD7FWg6zsDKj177zeUbhmwfILCEJpYS5UOil8vd2QaSKNHdcsWI6unmjn4cq0p6w4B8Vl7JmUuWbBsnNwhaeLDDkFxWgfGID09HTjcn/ji+YCmoubF9zkMqRn5aBDSAjKi3JQUs7eRkMWLC7L++QGMHToMFy4cB4lJSXo0qULrl69yrwwTbYhPhcfj7HjxmPnju1NRu4WBW30+Amora5CaVEWpF4dgeyzkLbvg6tnTqJHjxi42NugtFwBd1cHlFfWIC3hODr1HMEcYyPRYu++2w85DVfFFbSA9u3h4OiEqPAgHNi5A1WWgAYgaugUDAz1gJ+rPd7/9AuTInMFrefAkdCV5UDn4Apl0Q0kpLKnyOYKWqeeA6AqTEElnBHsBpy8oH+jvnHhChrJVNzBwwaFZTUID/bGjl0HWO1xBc3TNxKDYyNxYP8RDBoyEFu2bDWZ8JQLaGEdeyAmsh127TmE0WNHI/XSMVxOYd9zgA9ofn7+zNcCp06dZK43LCyMifoO9g6IizvALOy1OtDGTJoKe6kIWSlXoXYJhFwug1Zki4tx21Fp54rYUA9cySjDqCH9mQ0Kju7cjh4jx8FRJkVpzg0cOEqeOjcs3EADRGIpRo0dh7NHD6CojD0RJrHMKaIxTRBj8bJV2L1+JY6dv24xaGMmTMCRPdtQZWZHBa6g2bi0Q//oAJRDjpvnDqHYxDvEfECL7RrOZOvNuRaPk5fYr5kPaL1iQqAVqWBv52AV0MKDHJGTmQN7NxdUFWRbBbT7+8YiNTUFRYWFTB+TofqIESNB5t5xcXHM9KbVgTZy9HBkZ+ahWlEBt6BwXI0/hQnjx2PP1r8bgNa/exhuZpegKC8TnWMicPZaCWICXPDPqXOCQCND0eFjJyPh2H5klzb9gR5X0LpPmIUYLzGiA70xb9Eyi0EbPGo8UuOPAc5+cBKVIdHEpg9cQSMNGjJyPKRqBfbF3TkSMDSYD2jukkokXs/H2FGDsW3rNosjWpiPDWod26G9l3VA83FWwS8wHLtOX0UHWZlVQCOPGyZNnsLMwcgC3pgxY3Ho0EG4ubmhU6do7N27B2PGjmtdQ0dXdw9ImDlaHdQQoaqiAm4e7qgoLYFGJIWTnRTVdRq4OjsznaisroTUxgblFQo4u7hCUV6Gxk/euEQ0scQG3bt3Y+Z6pCRdvYjKavY5FRfQRGIJHpwxA7s2/Y7OfYajMvsyrqRksToe16GjVOaAqMgISLQqJKckQ1nL/lIuH9ACgsMhVVcgPYt9gwvSYK6gufoEITxI/yJBfs5NZGSz2+Qa0eQu7eDtLEZOcRU6RnTAhYsXLBo6evu2hww1cPPxxZX0XPjZKpFVwH5T5TN0JNfr5uaO6M7RzAeoZIWUrJaTuRtZ2CLX2+oimsnbvgU/cAGNj3kuoPGxxxU0rjb5gMbFJlfQuNgidbiCxtUeqcdljsbHHl/QiO3u990HV1c31q2gyJf08WfPNNmEFl0M4SMG17oUNOGpIPhENK790VZB43r9pupR0BopQyPavyf3PpflfUsBMxxPQaOgYe2aNYwKU6ZORZAVHliv+fpr5oH16LFjERkp8GPeev3SGoaOlgJHQaOgUdAspYjD8RQ0ChoFjQMollahoFHQKGiWUsTheAoaBY2CxgEUS6s0C2g+JOnJ9OkWv/lu7uLI6y8kvTN52ZM8qZ/1+OPmDjH7O3koGX/2LPOld3h4OOv3UWaN1KtQXFzEZEEiDziffOopwVmADSZJJuCDcXHMfz42ezZcXfUv+gotZWVl+HGd/mvpIUOHMpmULSnkuRx5e5/0TWy/fujVu7cl5hg7a7/9FtVVVUxWNfJpUFNv+nM52U8//IDS0lK4u7tj5qxZFtszd05yDb9v2ID8PPZ3L00db/YLa3Ig6bBOnTo1Wxov0vjz587hWnKysZ339ejBpN0W2hG5OTk4cviw8aEk+RDRx6edYNjIC6cFBflGe6RjhwwbxprpyVxnkd9J5qa4/fuN3/CRmwuBw1bGls7OvMW62loGWuJ0pJDPVYYOHw5PT0/zB7PUIG9MHDxwgLnxGeyR/PumvuMydxLSx0mJicz7p4bSKToaXWJiBPUxsUfSlZM37g2FvIFPHkYL9Rlz10Bed0lISGBSpfMtnEDja5TWpwpQBRoqIBr9mD/N5U29girQzAqIlh+MoKA1s8jUPFXg/wHI9+dBOUCv3gAAAABJRU5ErkJggg==;sketch=0;" vertex="1" parent="1">
                    <mxGeometry x="180" y="70" width="520" height="603" as="geometry"/>
                </mxCell>
            </root>
        </mxGraphModel>
    </diagram>
</mxfile>